<?xml version="1.0" encoding="UTF-8"?>
<svg id="_Слой_1" data-name="Слой 1" xmlns="http://www.w3.org/2000/svg" xmlns:xlink="http://www.w3.org/1999/xlink" viewBox="0 0 1920 1080">
  <defs>
    <style>
      .cls-1 {
        fill: url(#_Безымянный_градиент_21-10);
      }

      .cls-2 {
        fill: url(#_Безымянный_градиент_21-9);
      }

      .cls-3 {
        fill: url(#_Безымянный_градиент_21-15);
      }

      .cls-4 {
        fill: url(#_Безымянный_градиент_21-11);
      }

      .cls-5 {
        fill: url(#_Безымянный_градиент_21);
      }

      .cls-6 {
        fill: url(#_Безымянный_градиент_21-17);
      }

      .cls-7 {
        fill: url(#_Безымянный_градиент_21-12);
      }

      .cls-8 {
        fill: url(#_Безымянный_градиент_21-13);
      }

      .cls-9 {
        fill: url(#_Безымянный_градиент_21-24);
      }

      .cls-10 {
        fill: url(#_Безымянный_градиент_21-6);
      }

      .cls-11 {
        fill: url(#_Безымянный_градиент_21-22);
      }

      .cls-12 {
        fill: url(#_Безымянный_градиент_21-14);
      }

      .cls-13 {
        fill: url(#_Безымянный_градиент_21-19);
      }

      .cls-14 {
        fill: url(#_Безымянный_градиент_21-23);
      }

      .cls-15 {
        fill: url(#_Безымянный_градиент_21-2);
      }

      .cls-16 {
        fill: url(#_Безымянный_градиент_21-20);
      }

      .cls-17 {
        fill: url(#_Безымянный_градиент_21-4);
      }

      .cls-18 {
        fill: url(#_Безымянный_градиент_21-21);
      }

      .cls-19 {
        fill: url(#_Безымянный_градиент_21-8);
      }

      .cls-20 {
        fill: url(#_Безымянный_градиент_21-3);
      }

      .cls-21 {
        fill: url(#_Безымянный_градиент_21-7);
      }

      .cls-22 {
        fill: url(#_Безымянный_градиент_21-5);
      }

      .cls-23 {
        fill: url(#_Безымянный_градиент_21-18);
      }

      .cls-24 {
        fill: url(#_Безымянный_градиент_21-16);
      }
    </style>
    <linearGradient id="_Безымянный_градиент_21" data-name="Безымянный градиент 21" x1="761.87" y1="308.49" x2="761.87" y2="754.95" gradientUnits="userSpaceOnUse">
      <stop offset="0" stop-color="#52b884"/>
      <stop offset=".07" stop-color="#3fa072"/>
      <stop offset=".19" stop-color="#267f5a"/>
      <stop offset=".31" stop-color="#146849"/>
      <stop offset=".42" stop-color="#095a3f"/>
      <stop offset=".51" stop-color="#06563c"/>
      <stop offset=".62" stop-color="#085a3f"/>
      <stop offset=".73" stop-color="#0e6648"/>
      <stop offset=".84" stop-color="#197a57"/>
      <stop offset=".94" stop-color="#28966c"/>
      <stop offset="1" stop-color="#32a879"/>
    </linearGradient>
    <linearGradient id="_Безымянный_градиент_21-2" data-name="Безымянный градиент 21" x1="767.23" y1="308.49" x2="767.23" y2="754.95" xlink:href="#_Безымянный_градиент_21"/>
    <linearGradient id="_Безымянный_градиент_21-3" data-name="Безымянный градиент 21" x1="973.45" y1="308.49" x2="973.45" y2="754.95" xlink:href="#_Безымянный_градиент_21"/>
    <linearGradient id="_Безымянный_градиент_21-4" data-name="Безымянный градиент 21" x1="1171.02" y1="308.49" x2="1171.02" y2="754.95" xlink:href="#_Безымянный_градиент_21"/>
    <linearGradient id="_Безымянный_градиент_21-5" data-name="Безымянный градиент 21" x1="1362.34" y1="308.49" x2="1362.34" y2="754.95" xlink:href="#_Безымянный_градиент_21"/>
    <linearGradient id="_Безымянный_градиент_21-6" data-name="Безымянный градиент 21" x1="1569.62" y1="308.49" x2="1569.62" y2="754.95" xlink:href="#_Безымянный_градиент_21"/>
    <linearGradient id="_Безымянный_градиент_21-7" data-name="Безымянный градиент 21" x1="1771.75" y1="308.49" x2="1771.75" y2="754.95" xlink:href="#_Безымянный_градиент_21"/>
    <linearGradient id="_Безымянный_градиент_21-8" data-name="Безымянный градиент 21" x1="975.65" y1="308.49" x2="975.65" y2="754.95" xlink:href="#_Безымянный_градиент_21"/>
    <linearGradient id="_Безымянный_градиент_21-9" data-name="Безымянный градиент 21" x1="1199.75" y1="308.49" x2="1199.75" y2="754.95" xlink:href="#_Безымянный_градиент_21"/>
    <linearGradient id="_Безымянный_градиент_21-10" data-name="Безымянный градиент 21" x1="1428.07" y1="308.49" x2="1428.07" y2="754.95" xlink:href="#_Безымянный_градиент_21"/>
    <linearGradient id="_Безымянный_градиент_21-11" data-name="Безымянный градиент 21" x1="1638.95" y1="308.49" x2="1638.95" y2="754.95" xlink:href="#_Безымянный_градиент_21"/>
    <linearGradient id="_Безымянный_градиент_21-12" data-name="Безымянный градиент 21" x1="1806.78" y1="403.65" x2="600.31" y2="446.84" xlink:href="#_Безымянный_градиент_21"/>
    <linearGradient id="_Безымянный_градиент_21-13" data-name="Безымянный градиент 21" x1="1807.05" y1="411.3" x2="600.58" y2="454.49" xlink:href="#_Безымянный_градиент_21"/>
    <linearGradient id="_Безымянный_градиент_21-14" data-name="Безымянный градиент 21" x1="1807.3" y1="418.36" x2="600.83" y2="461.55" xlink:href="#_Безымянный_градиент_21"/>
    <linearGradient id="_Безымянный_градиент_21-15" data-name="Безымянный градиент 21" x1="1807.55" y1="425.2" x2="601.08" y2="468.39" xlink:href="#_Безымянный_градиент_21"/>
    <linearGradient id="_Безымянный_градиент_21-16" data-name="Безымянный градиент 21" x1="1807.85" y1="433.48" x2="601.38" y2="476.67" xlink:href="#_Безымянный_градиент_21"/>
    <linearGradient id="_Безымянный_градиент_21-17" data-name="Безымянный градиент 21" x1="1808.03" y1="438.5" x2="601.56" y2="481.69" xlink:href="#_Безымянный_градиент_21"/>
    <linearGradient id="_Безымянный_градиент_21-18" data-name="Безымянный градиент 21" x1="1814.9" y1="630.6" x2="608.43" y2="673.79" xlink:href="#_Безымянный_градиент_21"/>
    <linearGradient id="_Безымянный_градиент_21-19" data-name="Безымянный градиент 21" x1="1815.25" y1="640.45" x2="608.68" y2="683.65" xlink:href="#_Безымянный_градиент_21"/>
    <linearGradient id="_Безымянный_градиент_21-20" data-name="Безымянный градиент 21" x1="1815.52" y1="647.96" x2="609.05" y2="691.15" xlink:href="#_Безымянный_градиент_21"/>
    <linearGradient id="_Безымянный_градиент_21-21" data-name="Безымянный градиент 21" x1="1815.84" y1="656.72" x2="609.37" y2="699.91" xlink:href="#_Безымянный_градиент_21"/>
    <linearGradient id="_Безымянный_градиент_21-22" data-name="Безымянный градиент 21" x1="1816.11" y1="664.22" x2="609.64" y2="707.41" xlink:href="#_Безымянный_градиент_21"/>
    <linearGradient id="_Безымянный_градиент_21-23" data-name="Безымянный градиент 21" x1="333.21" y1="305.45" x2="312.05" y2="749.87" xlink:href="#_Безымянный_градиент_21"/>
    <linearGradient id="_Безымянный_градиент_21-24" data-name="Безымянный градиент 21" x1="132.06" y1="483.17" x2="516.02" y2="598.05" xlink:href="#_Безымянный_градиент_21"/>
  </defs>
  <g>
    <path class="cls-5" d="M852.64,362.9h-181.53v34.09h127.32l-127.32,75.65v46.57h181.53v-34h-127.32l127.32-75.56v-46.74Z"/>
    <path class="cls-15" d="M856.33,626.58c-4.92-24.87-20.47-34.18-51.66-34.18h-128.2v156.4h41.74v-34h86.46c34.71,0,47.97-10.81,51.93-36.55,1.06-6.59,1.41-18.19,1.41-25.74s-.53-19.77-1.67-25.92ZM815.12,664.36c0,7.82-6.41,14.15-14.23,14.15h-82.68v-51.93h82.68c7.82,0,14.23,6.41,14.23,14.23v23.55Z"/>
    <g>
      <path class="cls-20" d="M1064.22,397.08v-34.18h-181.53v156.49h181.53v-34.18h-139.8v-26.97h118v-34.18h-118v-26.97h139.8Z"/>
      <path class="cls-17" d="M1135.04,485.21v-122.31h-41.74v156.49h155.43v-34.18h-113.7Z"/>
      <path class="cls-22" d="M1453.11,397.08v-34.18h-181.53v156.49h181.53v-34.18h-139.88v-26.97h118.09v-34.18h-118.09v-26.97h139.88Z"/>
      <path class="cls-10" d="M1542.64,397.08l117.74.53v-34.79h-124.16c-43.58,0-57.38,20.3-57.38,63.09v32.77c0,44.46,19.42,60.8,63,60.8h118.53v-34l-117.48-.26c-14.67,0-21.09-4.13-21.09-24.43v-36.99c0-16.43,5.36-26.71,20.82-26.71Z"/>
      <path class="cls-21" d="M1680.94,362.81v34.27h69.94v122.22h41.74v-122.22h69.94v-34.27h-181.62Z"/>
      <path class="cls-19" d="M1010.35,592.4h-69.41c-43.58,0-57.38,20.3-57.38,63v32.77c0,44.37,19.42,60.63,63,60.63h58.17c43.58,0,63-16.25,63-60.63v-32.77c0-42.7-13.71-63-57.38-63ZM1024.77,690.37c0,20.21-6.41,24.34-21.09,24.34h-56.06c-14.67,0-21.09-4.13-21.09-24.34v-37.08c0-16.52,5.45-26.71,20.82-26.71h56.58c15.38,0,20.83,10.19,20.83,26.71v37.08Z"/>
      <path class="cls-2" d="M1273.51,592.31l-26.71,122.48h-8.61l-27.24-80.05h-22.32l-27.15,80.05h-8.7l-26.8-122.48h-39.19l34.18,156.49h69.15l9.66-37.52,9.67,37.52h69.15l34.09-156.49h-39.19Z"/>
      <path class="cls-1" d="M1518.83,626.58v-34.18h-181.53v156.4h181.53v-34.09h-139.79v-26.97h118v-34.18h-118v-26.97h139.79Z"/>
      <path class="cls-4" d="M1728.31,678.25c.97-6.59,1.41-18.19,1.41-25.74s-.53-19.86-1.76-25.92c-4.92-24.87-20.47-34.18-51.67-34.18h-128.11v156.4h41.74v-34h72.57l19.86,34.09h47.36l-22.93-38.84c12.83-5.45,18.98-15.64,21.53-31.81ZM1686.74,664.36c0,7.73-6.33,14.15-14.15,14.15h-82.68v-51.93h82.68c7.82,0,14.15,6.33,14.15,14.15v23.64Z"/>
      <g>
        <polygon class="cls-7" points="677.59 512.73 677.59 476.33 822.01 390.51 677.59 390.51 677.59 369.38 846.16 369.38 846.16 405.95 701.71 491.69 846.16 491.69 846.16 512.73 677.59 512.73"/>
        <polygon class="cls-8" points="889.16 512.91 889.16 369.38 1057.74 369.38 1057.74 390.6 917.94 390.6 917.94 430.53 1035.95 430.53 1035.95 451.75 917.94 451.75 917.94 491.69 1057.74 491.69 1057.74 512.91 889.16 512.91"/>
        <polygon class="cls-12" points="1099.78 512.91 1099.78 369.38 1128.56 369.38 1128.56 491.69 1242.26 491.69 1242.26 512.91 1099.78 512.91"/>
        <polygon class="cls-3" points="1278.06 512.91 1278.06 369.38 1446.63 369.38 1446.63 390.6 1306.75 390.6 1306.75 430.53 1424.84 430.53 1424.84 451.75 1306.75 451.75 1306.75 491.69 1446.63 491.69 1446.63 512.91 1278.06 512.91"/>
        <path class="cls-24" d="M1541.85,512.99c-41.2,0-56.52-14.72-56.52-54.32v-32.78c0-41.79,13.32-56.61,50.9-56.61h117.68v21.81l-111.23-.5c-12.48,0-27.33,5.76-27.33,33.19v36.99c0,22.24,7.73,30.91,27.57,30.91l111,.25v21.06h-112.05Z"/>
        <polygon class="cls-6" points="1757.36 512.82 1757.36 390.6 1687.42 390.6 1687.42 369.29 1856.08 369.29 1856.08 390.6 1786.14 390.6 1786.14 512.82 1757.36 512.82"/>
        <path class="cls-23" d="M682.94,742.33v-143.44h121.72c28.85,0,41.13,7.85,45.31,28.96.96,5.18,1.55,16.63,1.55,24.67s-.41,19-1.33,24.72c-3.1,20.18-11.27,31.1-45.53,31.1h-92.94v34.01h-28.78ZM711.72,684.99h89.16c11.42,0,20.71-9.25,20.71-20.63v-23.55c0-11.42-9.29-20.71-20.71-20.71h-89.16v64.88Z"/>
        <path class="cls-13" d="M946.56,742.33c-41.2,0-56.52-14.68-56.52-54.15v-32.77c0-41.73,13.32-56.52,50.9-56.52h69.41c37.58,0,50.9,14.79,50.9,56.52v32.77c0,39.48-15.32,54.15-56.52,54.15h-58.17ZM947.36,620.1c-12.46,0-27.3,5.76-27.3,33.19v37.08c0,22.18,7.73,30.82,27.57,30.82h56.06c19.84,0,27.57-8.64,27.57-30.82v-37.08c0-27.43-14.85-33.19-27.3-33.19h-56.58Z"/>
        <polygon class="cls-16" points="1214.48 742.33 1206.07 709.67 1193.52 709.67 1185.11 742.33 1126.19 742.33 1094.84 598.79 1120.77 598.79 1147.57 721.28 1166.13 721.28 1193.28 641.23 1206.31 641.23 1233.55 721.28 1252.02 721.28 1278.73 598.79 1304.66 598.79 1273.39 742.33 1214.48 742.33"/>
        <polygon class="cls-18" points="1343.78 742.33 1343.78 598.88 1512.35 598.88 1512.35 620.1 1372.56 620.1 1372.56 660.04 1490.56 660.04 1490.56 681.26 1372.56 681.26 1372.56 721.19 1512.35 721.19 1512.35 742.33 1343.78 742.33"/>
        <path class="cls-11" d="M1686.07,742.41l-19.86-34.09h-82.78v34.01h-28.78v-143.44h121.63c28.85,0,41.13,7.85,45.31,28.96,1.06,5.24,1.63,16.61,1.63,24.66s-.46,18.82-1.34,24.8c-2.31,14.66-7.43,22.44-17.65,26.78l-6.81,2.89,20.92,35.43h-32.28ZM1583.44,684.99h89.16c11.37,0,20.63-9.25,20.63-20.63v-23.63c0-11.37-9.25-20.63-20.63-20.63h-89.16v64.88Z"/>
      </g>
    </g>
  </g>
  <g>
    <path class="cls-14" d="M555.47,539.31h-65s41.02-71.22,61.17-106.22c-12.35-21.38-24.54-42.6-36.79-63.67-15.56-26.89-44.23-43.42-75.4-43.42H150.19c-41.22,71.32-51.58,89.18-92.75,160.5,10.56,18.26,20.71,35.87,31.02,53.72h65.3c-20.97,36.58-41.12,71.58-61.32,106.68,12.4,21.38,24.59,42.55,36.78,63.62,15.51,26.94,44.28,43.47,75.3,43.47h289.27c31.02-53.52,92.85-160.5,92.85-160.5l-31.17-54.18ZM99.53,498.6l66.42-114.79,8.11-14.79h250.34c25.25,0,48.82,13.57,61.52,35.41l16.58,28.72-3.57,6.17c-10.2,17.65-23.26,41.02-35.92,63.62-5.82,10.41-13.83,24.64-20.82,37.04h-101.07l22.86-41.38H99.53ZM485.52,683.28l-.56,1.02-15.46,26.78h-40.51l-12.4.05h-196.93c-25.2,0-48.77-13.57-61.53-35.41-4.28-7.45-8.62-14.85-13.06-22.45l-3.62-6.22,3.57-6.22c10.15-17.65,22.45-41.02,34.33-63.67,5.41-10.31,13.06-24.59,19.74-36.94h101.12l-20.92,41.02h.36l-.36.36h264.99l-58.77,101.68Z"/>
    <path class="cls-9" d="M204.52,748.89c-29.19,0-56.35-15.68-70.88-40.91,0,0-28.37-49.11-35.31-61.08l3.74-6.5c18.46-32.08,36.95-64.19,56.11-97.63l4.38-7.64h-71.16l-28.07-48.62c26.68-46.22,40.27-69.73,58.49-101.23l31.31-54.17h286.32c29.2,0,56.4,15.66,70.99,40.87,8.27,14.22,16.5,28.5,24.78,42.86l10.54,18.26-64.11,111.32h70.87l28.23,49.07c-9.38,16.23-61.36,106.15-89.9,155.4H204.52ZM194.63,537.8c-6.69,12.37-14.36,26.67-19.78,36.99-10.58,20.17-23.76,45.27-34.24,63.5l-5.04,8.79,7.69,13.2c3.54,6.06,7.01,12.01,10.46,18,13.69,23.43,38.95,37.96,65.95,37.96h196.93l12.42-.05h43.43l16.93-29.34.61-1.11,63.15-109.24h-261.45l-4.17-.12,21.04-41.25h-112.48l-1.45,2.67ZM332.5,545.08h112.69l1.46-2.6c6.99-12.4,15.01-26.64,20.82-37.05l2.05-3.66c11.89-21.25,24.19-43.22,33.83-59.89l5.05-8.72-18.05-31.28c-13.62-23.42-38.89-37.96-65.94-37.96h-253.37l-9.56,17.44-70.8,122.34h264.67l-22.86,41.37Z"/>
  </g>
</svg>