<?xml version="1.0" encoding="UTF-8"?>
<svg id="_Слой_1" data-name="Слой 1" xmlns="http://www.w3.org/2000/svg" xmlns:xlink="http://www.w3.org/1999/xlink" viewBox="0 0 1920 1080">
  <defs>
    <style>
      .cls-1 {
        fill: url(#_Безымянный_градиент_21-10);
      }

      .cls-2 {
        fill: url(#_Безымянный_градиент_21-9);
      }

      .cls-3 {
        fill: url(#_Безымянный_градиент_21-15);
      }

      .cls-4 {
        fill: url(#_Безымянный_градиент_21-11);
      }

      .cls-5 {
        fill: url(#_Безымянный_градиент_21);
      }

      .cls-6 {
        fill: url(#_Безымянный_градиент_21-17);
      }

      .cls-7 {
        fill: #126c4e;
      }

      .cls-8 {
        fill: url(#_Безымянный_градиент_21-12);
      }

      .cls-9 {
        fill: url(#_Безымянный_градиент_21-13);
      }

      .cls-10 {
        fill: url(#_Безымянный_градиент_21-24);
      }

      .cls-11 {
        fill: url(#_Безымянный_градиент_21-6);
      }

      .cls-12 {
        fill: url(#_Безымянный_градиент_21-22);
      }

      .cls-13 {
        fill: url(#_Безымянный_градиент_21-14);
      }

      .cls-14 {
        fill: url(#_Безымянный_градиент_21-19);
      }

      .cls-15 {
        fill: url(#_Безымянный_градиент_21-23);
      }

      .cls-16 {
        fill: url(#_Безымянный_градиент_21-2);
      }

      .cls-17 {
        fill: url(#_Безымянный_градиент_21-20);
      }

      .cls-18 {
        fill: url(#_Безымянный_градиент_21-4);
      }

      .cls-19 {
        fill: url(#_Безымянный_градиент_21-21);
      }

      .cls-20 {
        fill: url(#_Безымянный_градиент_21-8);
      }

      .cls-21 {
        fill: url(#_Безымянный_градиент_21-3);
      }

      .cls-22 {
        fill: url(#_Безымянный_градиент_21-7);
      }

      .cls-23 {
        fill: url(#_Безымянный_градиент_21-5);
      }

      .cls-24 {
        fill: url(#_Безымянный_градиент_21-18);
      }

      .cls-25 {
        fill: url(#_Безымянный_градиент_21-16);
      }
    </style>
    <linearGradient id="_Безымянный_градиент_21" data-name="Безымянный градиент 21" x1="858.3" y1="281.42" x2="858.3" y2="682.85" gradientUnits="userSpaceOnUse">
      <stop offset="0" stop-color="#52b884"/>
      <stop offset=".07" stop-color="#3fa072"/>
      <stop offset=".19" stop-color="#267f5a"/>
      <stop offset=".31" stop-color="#146849"/>
      <stop offset=".42" stop-color="#095a3f"/>
      <stop offset=".51" stop-color="#06563c"/>
      <stop offset=".62" stop-color="#085a3f"/>
      <stop offset=".73" stop-color="#0e6648"/>
      <stop offset=".84" stop-color="#197a57"/>
      <stop offset=".94" stop-color="#28966c"/>
      <stop offset="1" stop-color="#32a879"/>
    </linearGradient>
    <linearGradient id="_Безымянный_градиент_21-2" data-name="Безымянный градиент 21" x1="1048.54" y1="281.42" x2="1048.54" y2="682.85" xlink:href="#_Безымянный_градиент_21"/>
    <linearGradient id="_Безымянный_градиент_21-3" data-name="Безымянный градиент 21" x1="1226.19" y1="281.42" x2="1226.19" y2="682.85" xlink:href="#_Безымянный_градиент_21"/>
    <linearGradient id="_Безымянный_градиент_21-4" data-name="Безымянный градиент 21" x1="1398.22" y1="281.42" x2="1398.22" y2="682.85" xlink:href="#_Безымянный_градиент_21"/>
    <linearGradient id="_Безымянный_градиент_21-5" data-name="Безымянный градиент 21" x1="1584.6" y1="281.42" x2="1584.6" y2="682.85" xlink:href="#_Безымянный_градиент_21"/>
    <linearGradient id="_Безымянный_градиент_21-6" data-name="Безымянный градиент 21" x1="1766.35" y1="281.42" x2="1766.35" y2="682.85" xlink:href="#_Безымянный_градиент_21"/>
    <linearGradient id="_Безымянный_градиент_21-7" data-name="Безымянный градиент 21" x1="863.12" y1="281.42" x2="863.12" y2="682.85" xlink:href="#_Безымянный_градиент_21"/>
    <linearGradient id="_Безымянный_градиент_21-8" data-name="Безымянный градиент 21" x1="1050.52" y1="281.42" x2="1050.52" y2="682.85" xlink:href="#_Безымянный_градиент_21"/>
    <linearGradient id="_Безымянный_градиент_21-9" data-name="Безымянный градиент 21" x1="1252.02" y1="281.42" x2="1252.02" y2="682.85" xlink:href="#_Безымянный_градиент_21"/>
    <linearGradient id="_Безымянный_градиент_21-10" data-name="Безымянный градиент 21" x1="1457.32" y1="281.42" x2="1457.32" y2="682.85" xlink:href="#_Безымянный_градиент_21"/>
    <linearGradient id="_Безымянный_градиент_21-11" data-name="Безымянный градиент 21" x1="1646.93" y1="281.42" x2="1646.93" y2="682.85" xlink:href="#_Безымянный_градиент_21"/>
    <linearGradient id="_Безымянный_градиент_21-12" data-name="Безымянный градиент 21" x1="1797.84" y1="366.98" x2="713.03" y2="405.81" xlink:href="#_Безымянный_градиент_21"/>
    <linearGradient id="_Безымянный_градиент_21-13" data-name="Безымянный градиент 21" x1="1798.09" y1="373.86" x2="713.27" y2="412.69" xlink:href="#_Безымянный_градиент_21"/>
    <linearGradient id="_Безымянный_градиент_21-14" data-name="Безымянный градиент 21" x1="1798.31" y1="380.21" x2="713.5" y2="419.04" xlink:href="#_Безымянный_градиент_21"/>
    <linearGradient id="_Безымянный_градиент_21-15" data-name="Безымянный градиент 21" x1="1798.53" y1="386.36" x2="713.72" y2="425.19" xlink:href="#_Безымянный_градиент_21"/>
    <linearGradient id="_Безымянный_градиент_21-16" data-name="Безымянный градиент 21" x1="1798.8" y1="393.8" x2="713.99" y2="432.64" xlink:href="#_Безымянный_градиент_21"/>
    <linearGradient id="_Безымянный_градиент_21-17" data-name="Безымянный градиент 21" x1="1798.96" y1="398.32" x2="714.15" y2="437.15" xlink:href="#_Безымянный_градиент_21"/>
    <linearGradient id="_Безымянный_градиент_21-18" data-name="Безымянный градиент 21" x1="1805.15" y1="571.04" x2="720.33" y2="609.87" xlink:href="#_Безымянный_градиент_21"/>
    <linearGradient id="_Безымянный_градиент_21-19" data-name="Безымянный градиент 21" x1="1805.46" y1="579.9" x2="720.56" y2="618.74" xlink:href="#_Безымянный_градиент_21"/>
    <linearGradient id="_Безымянный_градиент_21-20" data-name="Безымянный градиент 21" x1="1805.7" y1="586.65" x2="720.89" y2="625.48" xlink:href="#_Безымянный_градиент_21"/>
    <linearGradient id="_Безымянный_градиент_21-21" data-name="Безымянный градиент 21" x1="1805.99" y1="594.53" x2="721.17" y2="633.37" xlink:href="#_Безымянный_градиент_21"/>
    <linearGradient id="_Безымянный_градиент_21-22" data-name="Безымянный градиент 21" x1="1806.23" y1="601.27" x2="721.42" y2="640.11" xlink:href="#_Безымянный_градиент_21"/>
    <linearGradient id="_Безымянный_градиент_21-23" data-name="Безымянный градиент 21" x1="386.89" y1="264.76" x2="362.72" y2="772.21" xlink:href="#_Безымянный_градиент_21"/>
    <linearGradient id="_Безымянный_градиент_21-24" data-name="Безымянный градиент 21" x1="157.21" y1="467.69" x2="595.62" y2="598.86" xlink:href="#_Безымянный_градиент_21"/>
  </defs>
  <g>
    <path class="cls-7" d="M793.27,774.62c-1.57-1.57-2.35-3.65-2.35-6.25v-25.42h-9.41v-6.32h9.41v-14.8h6.73v14.8h15.47v6.32h-15.47v25.02c0,1.8.89,2.69,2.69,2.69h11.43v6.32h-12.24c-2.6,0-4.69-.78-6.26-2.35Z"/>
    <path class="cls-7" d="M826.83,775.02c-3.23-1.83-5.76-4.34-7.6-7.53-1.84-3.18-2.76-6.75-2.76-10.69s.92-7.4,2.76-10.63c1.84-3.23,4.35-5.76,7.53-7.59,3.18-1.84,6.7-2.76,10.56-2.76s7.38.92,10.56,2.76c3.18,1.83,5.69,4.37,7.53,7.59,1.84,3.23,2.76,6.77,2.76,10.63,0,.99-.05,1.75-.14,2.29h-34.7c.45,3.68,1.99,6.66,4.64,8.94,2.65,2.29,6.03,3.43,10.16,3.43,2.33,0,4.44-.41,6.32-1.21,1.88-.81,3.36-1.92,4.44-3.36h7.67c-1.44,3.23-3.84,5.85-7.2,7.87-3.36,2.01-7.15,3.02-11.36,3.02s-7.94-.92-11.17-2.76ZM851.04,753.29c-.72-3.31-2.35-6.03-4.91-8.14-2.55-2.1-5.49-3.16-8.81-3.16s-6.25,1.06-8.81,3.16c-2.56,2.11-4.19,4.83-4.91,8.14h27.44Z"/>
    <path class="cls-7" d="M874.58,775.02c-3.23-1.83-5.76-4.34-7.6-7.53-1.84-3.18-2.76-6.75-2.76-10.69s.92-7.51,2.76-10.69c1.84-3.18,4.37-5.69,7.6-7.53,3.23-1.84,6.81-2.76,10.76-2.76,4.75,0,8.83,1.37,12.24,4.1s5.6,5.9,6.59,9.48h-7.26c-.9-2.06-2.38-3.79-4.44-5.17-2.06-1.4-4.57-2.09-7.53-2.09-4.13,0-7.47,1.37-10.02,4.1-2.55,2.74-3.83,6.25-3.83,10.56s1.28,7.82,3.83,10.56c2.56,2.74,5.9,4.1,10.02,4.1,2.96,0,5.47-.69,7.53-2.09,2.06-1.39,3.54-3.11,4.44-5.17h7.26c-.99,3.58-3.18,6.75-6.59,9.48-3.41,2.74-7.49,4.1-12.24,4.1-3.95,0-7.53-.92-10.76-2.76Z"/>
    <path class="cls-7" d="M915.2,721.82h6.72v21.25h.94c1.07-2.06,2.8-3.76,5.18-5.11,2.38-1.34,4.82-2.01,7.33-2.01,4.84,0,8.74,1.64,11.7,4.91,2.96,3.27,4.44,7.51,4.44,12.71v23.4h-6.86v-21.93c0-4.21-.9-7.4-2.69-9.55s-4.44-3.23-7.93-3.23c-3.14,0-5.94,1.3-8.41,3.9-2.47,2.6-3.7,5.56-3.7,8.88v21.93h-6.72v-55.15Z"/>
    <path class="cls-7" d="M964.83,736.62h6.18v6.46h.94c1.17-1.97,3-3.65,5.51-5.05,2.51-1.39,5.02-2.08,7.53-2.08,4.84,0,8.74,1.64,11.7,4.91,2.96,3.27,4.44,7.51,4.44,12.71v23.4h-6.86v-21.93c0-4.21-.9-7.4-2.69-9.55s-4.44-3.23-7.93-3.23c-3.23,0-6.05,1.27-8.47,3.83s-3.63,5.54-3.63,8.94v21.93h-6.72v-40.35Z"/>
    <path class="cls-7" d="M1021.59,775.02c-3.23-1.83-5.78-4.37-7.67-7.59-1.88-3.23-2.82-6.77-2.82-10.63s.94-7.4,2.82-10.63c1.88-3.23,4.44-5.76,7.67-7.59,3.23-1.84,6.81-2.76,10.76-2.76s7.53.92,10.76,2.76c3.23,1.83,5.78,4.37,7.67,7.59,1.88,3.23,2.82,6.77,2.82,10.63s-.94,7.4-2.82,10.63c-1.89,3.23-4.44,5.76-7.67,7.59-3.23,1.84-6.82,2.76-10.76,2.76s-7.53-.92-10.76-2.76ZM1022.13,767.22c2.78,2.83,6.18,4.24,10.22,4.24s7.44-1.41,10.22-4.24c2.78-2.82,4.17-6.3,4.17-10.42s-1.39-7.6-4.17-10.42c-2.78-2.83-6.19-4.24-10.22-4.24s-7.44,1.41-10.22,4.24c-2.78,2.82-4.17,6.3-4.17,10.42s1.39,7.6,4.17,10.42Z"/>
    <path class="cls-7" d="M1064.63,721.82h6.72v55.15h-6.72v-55.15Z"/>
    <path class="cls-7" d="M1092.87,775.02c-3.23-1.83-5.78-4.37-7.67-7.59-1.88-3.23-2.82-6.77-2.82-10.63s.94-7.4,2.82-10.63c1.88-3.23,4.44-5.76,7.67-7.59,3.23-1.84,6.81-2.76,10.76-2.76s7.53.92,10.76,2.76c3.23,1.83,5.78,4.37,7.67,7.59,1.88,3.23,2.82,6.77,2.82,10.63s-.94,7.4-2.82,10.63c-1.89,3.23-4.44,5.76-7.67,7.59-3.23,1.84-6.82,2.76-10.76,2.76s-7.53-.92-10.76-2.76ZM1093.41,767.22c2.78,2.83,6.18,4.24,10.22,4.24s7.44-1.41,10.22-4.24c2.78-2.82,4.17-6.3,4.17-10.42s-1.39-7.6-4.17-10.42c-2.78-2.83-6.19-4.24-10.22-4.24s-7.44,1.41-10.22,4.24c-2.78,2.82-4.17,6.3-4.17,10.42s1.39,7.6,4.17,10.42Z"/>
    <path class="cls-7" d="M1136.99,785.44h25.02c1.79,0,2.69-.89,2.69-2.69v-12.24h-.94c-1.17,1.98-3.01,3.64-5.52,4.98-2.51,1.34-4.97,2.01-7.4,2.01-3.77,0-7.18-.89-10.22-2.69-3.05-1.8-5.43-4.26-7.13-7.4-1.7-3.14-2.56-6.68-2.56-10.63s.85-7.49,2.56-10.63c1.7-3.14,4.08-5.6,7.13-7.4,3.05-1.79,6.46-2.69,10.22-2.69,2.6,0,5.18.67,7.73,2.01,2.56,1.35,4.46,3.01,5.72,4.98h.94v-6.46h6.19v46.54c0,2.6-.79,4.68-2.36,6.26-1.57,1.56-3.65,2.35-6.25,2.35h-25.82v-6.33ZM1141.76,767.22c2.64,2.83,5.89,4.24,9.75,4.24s7.08-1.41,9.68-4.24c2.6-2.82,3.9-6.3,3.9-10.42s-1.3-7.6-3.9-10.42c-2.6-2.83-5.83-4.24-9.68-4.24s-7.11,1.41-9.75,4.24c-2.64,2.82-3.97,6.3-3.97,10.42s1.32,7.6,3.97,10.42Z"/>
    <path class="cls-7" d="M1183.79,785.44h11.43c.54,0,.99-.15,1.35-.47.36-.32.76-1.06,1.21-2.22l1.21-3.09-18.96-43.04h7.53l14.39,33.62h.94l13.05-33.62h7.13l-18.43,46.54c-1.44,3.5-2.76,5.81-3.97,6.93-1.21,1.12-2.98,1.68-5.31,1.68h-11.57v-6.33Z"/>
  </g>
  <path class="cls-5" d="M939.91,330.34h-163.22v30.65h114.48l-114.48,68.02v41.87h163.22v-30.58h-114.48l114.48-67.94v-42.03Z"/>
  <path class="cls-16" d="M1130.16,361.07v-30.73h-163.23v140.71h163.23v-30.73h-125.7v-24.25h106.11v-30.73h-106.11v-24.25h125.7Z"/>
  <path class="cls-21" d="M1193.84,440.31v-109.98h-37.53v140.71h139.76v-30.73h-102.23Z"/>
  <path class="cls-18" d="M1479.84,361.07v-30.73h-163.22v140.71h163.22v-30.73h-125.78v-24.25h106.18v-30.73h-106.18v-24.25h125.78Z"/>
  <path class="cls-23" d="M1560.34,361.07l105.87.47v-31.29h-111.64c-39.19,0-51.59,18.25-51.59,56.73v29.47c0,39.98,17.46,54.67,56.65,54.67h106.58v-30.58l-105.63-.24c-13.19,0-18.96-3.71-18.96-21.96v-33.26c0-14.77,4.82-24.02,18.72-24.02Z"/>
  <path class="cls-11" d="M1684.7,330.26v30.81h62.89v109.9h37.53v-109.9h62.89v-30.81h-163.3Z"/>
  <path class="cls-22" d="M943.23,567.43c-4.42-22.36-18.41-30.73-46.45-30.73h-115.27v140.63h37.53v-30.58h77.74c31.21,0,43.14-9.72,46.69-32.87.95-5.93,1.27-16.35,1.27-23.15s-.47-17.78-1.5-23.31ZM906.18,601.4c0,7.03-5.77,12.72-12.8,12.72h-74.35v-46.69h74.35c7.03,0,12.8,5.77,12.8,12.8v21.17Z"/>
  <path class="cls-20" d="M1081.73,536.7h-62.41c-39.19,0-51.59,18.25-51.59,56.65v29.47c0,39.9,17.46,54.51,56.65,54.51h52.3c39.19,0,56.65-14.62,56.65-54.51v-29.47c0-38.4-12.33-56.65-51.59-56.65ZM1094.68,624.79c0,18.17-5.77,21.88-18.96,21.88h-50.4c-13.19,0-18.96-3.71-18.96-21.88v-33.34c0-14.85,4.9-24.02,18.72-24.02h50.88c13.83,0,18.73,9.16,18.73,24.02v33.34Z"/>
  <path class="cls-2" d="M1318.35,536.62l-24.02,110.13h-7.74l-24.49-71.97h-20.07l-24.41,71.97h-7.82l-24.1-110.13h-35.24l30.73,140.71h62.18l8.69-33.73,8.69,33.73h62.18l30.66-140.71h-35.24Z"/>
  <path class="cls-1" d="M1538.93,567.43v-30.73h-163.22v140.63h163.22v-30.65h-125.7v-24.25h106.1v-30.73h-106.1v-24.25h125.7Z"/>
  <path class="cls-4" d="M1727.28,613.89c.87-5.93,1.26-16.35,1.26-23.15s-.47-17.86-1.58-23.31c-4.42-22.36-18.41-30.73-46.46-30.73h-115.19v140.63h37.53v-30.58h65.26l17.86,30.65h42.58l-20.62-34.92c11.53-4.9,17.07-14.06,19.36-28.6ZM1689.91,601.4c0,6.95-5.69,12.72-12.72,12.72h-74.34v-46.69h74.34c7.03,0,12.72,5.69,12.72,12.72v21.25Z"/>
  <g>
    <polygon class="cls-8" points="782.51 465.06 782.51 432.33 912.37 355.16 782.51 355.16 782.51 336.16 934.09 336.16 934.09 369.05 804.2 446.14 934.09 446.14 934.09 465.06 782.51 465.06"/>
    <polygon class="cls-9" points="972.76 465.22 972.76 336.16 1124.33 336.16 1124.33 355.24 998.63 355.24 998.63 391.15 1104.74 391.15 1104.74 410.23 998.63 410.23 998.63 446.14 1124.33 446.14 1124.33 465.22 972.76 465.22"/>
    <polygon class="cls-13" points="1162.13 465.22 1162.13 336.16 1188.01 336.16 1188.01 446.14 1290.24 446.14 1290.24 465.22 1162.13 465.22"/>
    <polygon class="cls-3" points="1322.44 465.22 1322.44 336.16 1474.01 336.16 1474.01 355.24 1348.23 355.24 1348.23 391.15 1454.42 391.15 1454.42 410.23 1348.23 410.23 1348.23 446.14 1474.01 446.14 1474.01 465.22 1322.44 465.22"/>
    <path class="cls-25" d="M1559.63,465.3c-37.05,0-50.82-13.24-50.82-48.84v-29.47c0-37.58,11.98-50.9,45.77-50.9h105.81v19.61l-100.02-.45c-11.23,0-24.58,5.18-24.58,29.84v33.26c0,20,6.95,27.79,24.79,27.79l99.81.22v18.94h-100.75Z"/>
    <polygon class="cls-6" points="1753.41 465.14 1753.41 355.24 1690.52 355.24 1690.52 336.08 1842.17 336.08 1842.17 355.24 1779.29 355.24 1779.29 465.14 1753.41 465.14"/>
    <path class="cls-24" d="M787.33,671.5v-128.98h109.44c25.94,0,36.99,7.06,40.74,26.04.87,4.66,1.39,14.96,1.39,22.18s-.37,17.08-1.19,22.23c-2.79,18.15-10.13,27.96-40.94,27.96h-83.57v30.58h-25.88ZM813.21,619.95h80.17c10.27,0,18.62-8.32,18.62-18.55v-21.17c0-10.27-8.35-18.62-18.62-18.62h-80.17v58.34Z"/>
    <path class="cls-14" d="M1024.37,671.5c-37.05,0-50.82-13.2-50.82-48.69v-29.47c0-37.52,11.98-50.82,45.77-50.82h62.41c33.79,0,45.77,13.3,45.77,50.82v29.47c0,35.5-13.77,48.69-50.82,48.69h-52.3ZM1025.08,561.61c-11.2,0-24.55,5.18-24.55,29.84v33.34c0,19.94,6.95,27.71,24.79,27.71h50.4c17.84,0,24.79-7.77,24.79-27.71v-33.34c0-24.66-13.35-29.84-24.55-29.84h-50.88Z"/>
    <polygon class="cls-17" points="1265.27 671.5 1257.7 642.14 1246.42 642.14 1238.86 671.5 1185.89 671.5 1157.7 542.44 1181.01 542.44 1205.11 652.58 1221.79 652.58 1246.2 580.6 1257.93 580.6 1282.42 652.58 1299.02 652.58 1323.04 542.44 1346.35 542.44 1318.24 671.5 1265.27 671.5"/>
    <polygon class="cls-19" points="1381.53 671.5 1381.53 542.52 1533.11 542.52 1533.11 561.61 1407.41 561.61 1407.41 597.51 1513.51 597.51 1513.51 616.59 1407.41 616.59 1407.41 652.5 1533.11 652.5 1533.11 671.5 1381.53 671.5"/>
    <path class="cls-12" d="M1689.31,671.58l-17.86-30.65h-74.43v30.58h-25.88v-128.98h109.36c25.94,0,36.99,7.06,40.74,26.04.96,4.71,1.47,14.94,1.47,22.18s-.41,16.92-1.2,22.3c-2.08,13.18-6.68,20.18-15.87,24.08l-6.12,2.6,18.81,31.85h-29.03ZM1597.02,619.95h80.17c10.23,0,18.55-8.32,18.55-18.55v-21.25c0-10.23-8.32-18.55-18.55-18.55h-80.17v58.34Z"/>
  </g>
  <path class="cls-15" d="M640.67,531.79h-74.22s46.84-81.32,69.85-121.28c-14.1-24.41-28.02-48.64-42-72.7-17.77-30.7-50.51-49.57-86.1-49.57H177.91c-47.07,81.44-58.9,101.83-105.91,183.27,12.06,20.85,23.65,40.95,35.42,61.34h74.56c-23.94,41.77-46.95,81.73-70.02,121.81,14.16,24.41,28.08,48.58,42,72.64,17.71,30.76,50.57,49.63,85.98,49.63h330.3c35.42-61.11,106.02-183.27,106.02-183.27l-35.59-61.87ZM120.06,485.31l75.85-131.07,9.26-16.89h285.85c28.83,0,55.75,15.5,70.25,40.43l18.93,32.8-4.08,7.05c-11.65,20.16-26.56,46.84-41.01,72.64-6.64,11.88-15.79,28.14-23.77,42.29h-115.4l26.1-47.24H120.06ZM560.8,696.18l-.64,1.17-17.65,30.58h-46.25l-14.16.06h-224.86c-28.78,0-55.69-15.5-70.25-40.43-4.89-8.51-9.84-16.95-14.91-25.63l-4.14-7.11,4.08-7.11c11.59-20.16,25.63-46.84,39.2-72.7,6.18-11.77,14.91-28.08,22.54-42.18h115.46l-23.88,46.84h.41l-.41.41h302.57l-67.11,116.1Z"/>
  <path class="cls-10" d="M239.95,771.1c-33.33,0-64.34-17.9-80.94-46.71,0,0-32.4-56.07-40.32-69.75l4.28-7.43c21.08-36.63,42.19-73.29,64.07-111.47l5-8.72h-81.25l-32.06-55.52c30.47-52.78,45.98-79.62,66.79-115.59l35.76-61.85h326.94c33.34,0,64.4,17.88,81.06,46.67,9.44,16.24,18.84,32.55,28.29,48.94l12.03,20.85-73.2,127.11h80.93l32.24,56.04c-10.72,18.54-70.06,121.2-102.66,177.45H239.95ZM228.65,530.07c-7.64,14.12-16.4,30.46-22.58,42.24-12.09,23.03-27.13,51.69-39.1,72.5l-5.76,10.04,8.79,15.07c4.04,6.91,8.01,13.71,11.94,20.55,15.63,26.75,44.47,43.35,75.3,43.35h224.86l14.18-.06h49.59l19.33-33.5.7-1.27,72.1-124.73h-298.53l-4.76-.14,24.02-47.1h-128.44l-1.65,3.05ZM386.07,538.37h128.68l1.67-2.96c7.98-14.16,17.13-30.42,23.78-42.31l2.34-4.18c13.58-24.26,27.63-49.35,38.63-68.39l5.76-9.96-20.61-35.71c-15.56-26.74-44.4-43.34-75.3-43.34H201.72l-10.92,19.92-80.84,139.7h302.21l-26.1,47.24Z"/>
</svg>