<?xml version="1.0" encoding="UTF-8"?>
<svg id="_Слой_1" data-name="Слой 1" xmlns="http://www.w3.org/2000/svg" xmlns:xlink="http://www.w3.org/1999/xlink" viewBox="0 0 1500 1500">
  <defs>
    <style>
      .cls-1 {
        fill: url(#_Безымянный_градиент_21-10);
      }

      .cls-2 {
        fill: url(#_Безымянный_градиент_21-9);
      }

      .cls-3 {
        fill: url(#_Безымянный_градиент_21-15);
      }

      .cls-4 {
        fill: url(#_Безымянный_градиент_21-11);
      }

      .cls-5 {
        fill: url(#_Безымянный_градиент_21);
      }

      .cls-6 {
        fill: url(#_Безымянный_градиент_21-17);
      }

      .cls-7 {
        fill: url(#_Безымянный_градиент_21-12);
      }

      .cls-8 {
        fill: url(#_Безымянный_градиент_21-13);
      }

      .cls-9 {
        fill: url(#_Безымянный_градиент_21-24);
      }

      .cls-10 {
        fill: url(#_Безымянный_градиент_21-6);
      }

      .cls-11 {
        fill: url(#_Безымянный_градиент_21-22);
      }

      .cls-12 {
        fill: url(#_Безымянный_градиент_21-14);
      }

      .cls-13 {
        fill: url(#_Безымянный_градиент_21-19);
      }

      .cls-14 {
        fill: url(#_Безымянный_градиент_21-23);
      }

      .cls-15 {
        fill: url(#_Безымянный_градиент_21-2);
      }

      .cls-16 {
        fill: url(#_Безымянный_градиент_21-20);
      }

      .cls-17 {
        fill: url(#_Безымянный_градиент_21-4);
      }

      .cls-18 {
        fill: url(#_Безымянный_градиент_21-21);
      }

      .cls-19 {
        fill: url(#_Безымянный_градиент_21-8);
      }

      .cls-20 {
        fill: url(#_Безымянный_градиент_21-3);
      }

      .cls-21 {
        fill: url(#_Безымянный_градиент_21-7);
      }

      .cls-22 {
        fill: url(#_Безымянный_градиент_21-5);
      }

      .cls-23 {
        fill: url(#_Безымянный_градиент_21-18);
      }

      .cls-24 {
        fill: url(#_Безымянный_градиент_21-16);
      }
    </style>
    <linearGradient id="_Безымянный_градиент_21" data-name="Безымянный градиент 21" x1="302.94" y1="839.43" x2="302.94" y2="1234.7" gradientUnits="userSpaceOnUse">
      <stop offset="0" stop-color="#52b884"/>
      <stop offset=".07" stop-color="#3fa072"/>
      <stop offset=".19" stop-color="#267f5a"/>
      <stop offset=".31" stop-color="#146849"/>
      <stop offset=".42" stop-color="#095a3f"/>
      <stop offset=".51" stop-color="#06563c"/>
      <stop offset=".62" stop-color="#085a3f"/>
      <stop offset=".73" stop-color="#0e6648"/>
      <stop offset=".84" stop-color="#197a57"/>
      <stop offset=".94" stop-color="#28966c"/>
      <stop offset="1" stop-color="#32a879"/>
    </linearGradient>
    <linearGradient id="_Безымянный_градиент_21-2" data-name="Безымянный градиент 21" x1="490.26" y1="839.43" x2="490.26" y2="1234.7" xlink:href="#_Безымянный_градиент_21"/>
    <linearGradient id="_Безымянный_градиент_21-3" data-name="Безымянный градиент 21" x1="665.17" y1="839.43" x2="665.17" y2="1234.7" xlink:href="#_Безымянный_градиент_21"/>
    <linearGradient id="_Безымянный_градиент_21-4" data-name="Безымянный градиент 21" x1="834.56" y1="839.43" x2="834.56" y2="1234.7" xlink:href="#_Безымянный_градиент_21"/>
    <linearGradient id="_Безымянный_градиент_21-5" data-name="Безымянный градиент 21" x1="1018.07" y1="839.43" x2="1018.07" y2="1234.7" xlink:href="#_Безымянный_градиент_21"/>
    <linearGradient id="_Безымянный_градиент_21-6" data-name="Безымянный градиент 21" x1="1197.03" y1="839.43" x2="1197.03" y2="1234.7" xlink:href="#_Безымянный_градиент_21"/>
    <linearGradient id="_Безымянный_градиент_21-7" data-name="Безымянный градиент 21" x1="1228.03" y1="923.67" x2="159.9" y2="961.91" xlink:href="#_Безымянный_градиент_21"/>
    <linearGradient id="_Безымянный_градиент_21-8" data-name="Безымянный градиент 21" x1="1228.28" y1="930.45" x2="160.14" y2="968.69" xlink:href="#_Безымянный_градиент_21"/>
    <linearGradient id="_Безымянный_градиент_21-9" data-name="Безымянный градиент 21" x1="1228.5" y1="936.7" x2="160.36" y2="974.94" xlink:href="#_Безымянный_градиент_21"/>
    <linearGradient id="_Безымянный_градиент_21-10" data-name="Безымянный градиент 21" x1="1228.72" y1="942.76" x2="160.58" y2="981" xlink:href="#_Безымянный_градиент_21"/>
    <linearGradient id="_Безымянный_градиент_21-11" data-name="Безымянный градиент 21" x1="1228.98" y1="950.09" x2="160.84" y2="988.33" xlink:href="#_Безымянный_градиент_21"/>
    <linearGradient id="_Безымянный_градиент_21-12" data-name="Безымянный градиент 21" x1="1229.14" y1="954.53" x2="161" y2="992.77" xlink:href="#_Безымянный_градиент_21"/>
    <linearGradient id="_Безымянный_градиент_21-13" data-name="Безымянный градиент 21" x1="364.12" y1="839.43" x2="364.12" y2="1234.7" xlink:href="#_Безымянный_градиент_21"/>
    <linearGradient id="_Безымянный_градиент_21-14" data-name="Безымянный градиент 21" x1="548.64" y1="839.43" x2="548.64" y2="1234.7" xlink:href="#_Безымянный_градиент_21"/>
    <linearGradient id="_Безымянный_градиент_21-15" data-name="Безымянный градиент 21" x1="747.04" y1="839.43" x2="747.04" y2="1234.7" xlink:href="#_Безымянный_градиент_21"/>
    <linearGradient id="_Безымянный_градиент_21-16" data-name="Безымянный градиент 21" x1="949.18" y1="839.43" x2="949.18" y2="1234.7" xlink:href="#_Безымянный_градиент_21"/>
    <linearGradient id="_Безымянный_градиент_21-17" data-name="Безымянный градиент 21" x1="1135.88" y1="839.43" x2="1135.88" y2="1234.7" xlink:href="#_Безымянный_градиент_21"/>
    <linearGradient id="_Безымянный_градиент_21-18" data-name="Безымянный градиент 21" x1="1291.66" y1="1124.6" x2="223.53" y2="1162.84" xlink:href="#_Безымянный_градиент_21"/>
    <linearGradient id="_Безымянный_градиент_21-19" data-name="Безымянный градиент 21" x1="1291.98" y1="1133.33" x2="223.75" y2="1171.57" xlink:href="#_Безымянный_градиент_21"/>
    <linearGradient id="_Безымянный_градиент_21-20" data-name="Безымянный градиент 21" x1="1292.21" y1="1139.97" x2="224.08" y2="1178.21" xlink:href="#_Безымянный_градиент_21"/>
    <linearGradient id="_Безымянный_градиент_21-21" data-name="Безымянный градиент 21" x1="1292.49" y1="1147.73" x2="224.36" y2="1185.97" xlink:href="#_Безымянный_градиент_21"/>
    <linearGradient id="_Безымянный_градиент_21-22" data-name="Безымянный градиент 21" x1="1292.73" y1="1154.37" x2="224.59" y2="1192.6" xlink:href="#_Безымянный_градиент_21"/>
    <linearGradient id="_Безымянный_градиент_21-23" data-name="Безымянный градиент 21" x1="763.38" y1="246.04" x2="738.03" y2="778.49" xlink:href="#_Безымянный_градиент_21"/>
    <linearGradient id="_Безымянный_градиент_21-24" data-name="Безымянный градиент 21" x1="522.39" y1="458.96" x2="982.4" y2="596.6" xlink:href="#_Безымянный_градиент_21"/>
  </defs>
  <g>
    <path class="cls-5" d="M383.29,887.6h-160.72v30.18h112.72l-112.72,66.98v41.23h160.72v-30.11h-112.72l112.72-66.9v-41.38Z"/>
    <path class="cls-15" d="M570.61,917.86v-30.26h-160.72v138.55h160.72v-30.26h-123.77v-23.88h104.47v-30.26h-104.47v-23.88h123.77Z"/>
    <path class="cls-20" d="M633.31,995.88v-108.28h-36.95v138.55h137.61v-30.26h-100.66Z"/>
    <path class="cls-17" d="M914.92,917.86v-30.26h-160.72v138.55h160.72v-30.26h-123.84v-23.88h104.55v-30.26h-104.55v-23.88h123.84Z"/>
    <path class="cls-22" d="M994.19,917.86l104.24.47v-30.81h-109.92c-38.58,0-50.8,17.97-50.8,55.85v29.02c0,39.36,17.19,53.83,55.78,53.83h104.94v-30.11l-104.01-.23c-12.99,0-18.67-3.66-18.67-21.63v-32.75c0-14.55,4.74-23.65,18.44-23.65Z"/>
    <path class="cls-10" d="M1116.63,887.52v30.34h61.92v108.21h36.95v-108.21h61.92v-30.34h-160.79Z"/>
    <polygon class="cls-21" points="228.31 1020.25 228.31 988.02 356.18 912.04 228.31 912.04 228.31 893.33 377.56 893.33 377.56 925.72 249.67 1001.62 377.56 1001.62 377.56 1020.25 228.31 1020.25"/>
    <polygon class="cls-19" points="415.63 1020.4 415.63 893.33 564.88 893.33 564.88 912.12 441.11 912.12 441.11 947.47 545.59 947.47 545.59 966.26 441.11 966.26 441.11 1001.62 564.88 1001.62 564.88 1020.4 415.63 1020.4"/>
    <polygon class="cls-2" points="602.1 1020.4 602.1 893.33 627.58 893.33 627.58 1001.62 728.24 1001.62 728.24 1020.4 602.1 1020.4"/>
    <polygon class="cls-1" points="759.94 1020.4 759.94 893.33 909.18 893.33 909.18 912.12 785.34 912.12 785.34 947.47 889.89 947.47 889.89 966.26 785.34 966.26 785.34 1001.62 909.18 1001.62 909.18 1020.4 759.94 1020.4"/>
    <path class="cls-4" d="M993.49,1020.48c-36.48,0-50.04-13.03-50.04-48.09v-29.02c0-37,11.79-50.12,45.06-50.12h104.18v19.31l-98.48-.44c-11.05,0-24.2,5.1-24.2,29.38v32.75c0,19.69,6.84,27.36,24.4,27.36l98.27.22v18.65h-99.21Z"/>
    <polygon class="cls-7" points="1184.29 1020.33 1184.29 912.12 1122.36 912.12 1122.36 893.25 1271.69 893.25 1271.69 912.12 1209.76 912.12 1209.76 1020.33 1184.29 1020.33"/>
  </g>
  <g>
    <path class="cls-8" d="M443,1121.05c-4.35-22.01-18.12-30.26-45.74-30.26h-113.5v138.47h36.95v-30.11h76.55c30.73,0,42.47-9.57,45.97-32.36.93-5.83,1.25-16.1,1.25-22.79s-.47-17.5-1.48-22.95ZM406.51,1154.5c0,6.92-5.68,12.52-12.6,12.52h-73.2v-45.97h73.2c6.92,0,12.6,5.68,12.6,12.6v20.85Z"/>
    <path class="cls-12" d="M579.37,1090.79h-61.45c-38.58,0-50.8,17.97-50.8,55.78v29.02c0,39.28,17.19,53.68,55.78,53.68h51.5c38.58,0,55.78-14.39,55.78-53.68v-29.02c0-37.81-12.14-55.78-50.8-55.78ZM592.12,1177.52c0,17.89-5.68,21.55-18.67,21.55h-49.63c-12.99,0-18.67-3.66-18.67-21.55v-32.83c0-14.62,4.82-23.65,18.44-23.65h50.1c13.61,0,18.44,9.02,18.44,23.65v32.83Z"/>
    <path class="cls-3" d="M812.35,1090.71l-23.65,108.44h-7.63l-24.11-70.87h-19.76l-24.04,70.87h-7.7l-23.73-108.44h-34.7l30.26,138.55h61.22l8.56-33.22,8.56,33.22h61.22l30.18-138.55h-34.7Z"/>
    <path class="cls-24" d="M1029.54,1121.05v-30.26h-160.72v138.47h160.72v-30.18h-123.76v-23.88h104.47v-30.26h-104.47v-23.88h123.76Z"/>
    <path class="cls-6" d="M1215,1166.79c.85-5.83,1.24-16.1,1.24-22.79s-.47-17.58-1.56-22.95c-4.36-22.01-18.13-30.26-45.74-30.26h-113.42v138.47h36.95v-30.11h64.25l17.58,30.18h41.93l-20.3-34.38c11.36-4.82,16.8-13.85,19.06-28.16ZM1178.2,1154.5c0,6.85-5.6,12.52-12.53,12.52h-73.2v-45.97h73.2c6.92,0,12.53,5.6,12.53,12.52v20.93Z"/>
    <path class="cls-23" d="M289.5,1223.52v-127h107.76c25.55,0,36.42,6.95,40.11,25.64.85,4.59,1.37,14.73,1.37,21.84s-.36,16.82-1.17,21.88c-2.74,17.87-9.98,27.53-40.31,27.53h-82.28v30.11h-25.48ZM314.97,1172.76h78.94c10.11,0,18.34-8.19,18.34-18.26v-20.85c0-10.11-8.23-18.34-18.34-18.34h-78.94v57.44Z"/>
    <path class="cls-13" d="M522.89,1223.52c-36.48,0-50.04-12.99-50.04-47.94v-29.02c0-36.95,11.79-50.04,45.06-50.04h61.45c33.27,0,45.06,13.09,45.06,50.04v29.02c0,34.95-13.56,47.94-50.04,47.94h-51.5ZM523.59,1115.31c-11.03,0-24.17,5.1-24.17,29.38v32.83c0,19.64,6.84,27.28,24.4,27.28h49.63c17.56,0,24.41-7.65,24.41-27.28v-32.83c0-24.28-13.15-29.38-24.17-29.38h-50.1Z"/>
    <polygon class="cls-16" points="760.09 1223.52 752.64 1194.6 741.53 1194.6 734.08 1223.52 681.92 1223.52 654.17 1096.44 677.12 1096.44 700.85 1204.88 717.28 1204.88 741.31 1134.02 752.86 1134.02 776.97 1204.88 793.32 1204.88 816.97 1096.44 839.92 1096.44 812.24 1223.52 760.09 1223.52"/>
    <polygon class="cls-18" points="874.56 1223.52 874.56 1096.52 1023.81 1096.52 1023.81 1115.31 900.04 1115.31 900.04 1150.66 1004.51 1150.66 1004.51 1169.45 900.04 1169.45 900.04 1204.81 1023.81 1204.81 1023.81 1223.52 874.56 1223.52"/>
    <path class="cls-11" d="M1177.61,1223.59l-17.58-30.18h-73.29v30.11h-25.48v-127h107.68c25.54,0,36.42,6.95,40.12,25.64.94,4.64,1.45,14.71,1.45,21.83s-.41,16.66-1.18,21.96c-2.05,12.98-6.58,19.87-15.63,23.71l-6.02,2.56,18.52,31.36h-28.58ZM1086.74,1172.76h78.94c10.07,0,18.26-8.19,18.26-18.26v-20.92c0-10.07-8.19-18.26-18.26-18.26h-78.94v57.44Z"/>
  </g>
  <g>
    <path class="cls-14" d="M1029.67,526.22h-77.87s49.14-85.33,73.29-127.26c-14.79-25.61-29.4-51.04-44.07-76.28-18.64-32.21-52.99-52.02-90.34-52.02h-346.57c-49.39,85.45-61.8,106.84-111.12,192.29,12.65,21.88,24.82,42.97,37.16,64.36h78.24c-25.12,43.83-49.27,85.76-73.47,127.81,14.85,25.61,29.46,50.98,44.07,76.22,18.58,32.27,53.06,52.08,90.22,52.08h346.57c37.16-64.12,111.25-192.29,111.25-192.29l-37.35-64.91ZM483.41,477.45l79.58-137.53,9.72-17.73h299.93c30.25,0,58.49,16.26,73.71,42.42l19.87,34.41-4.28,7.4c-12.22,21.15-27.87,49.14-43.03,76.22-6.97,12.47-16.56,29.52-24.94,44.38h-121.09l27.38-49.57h-316.86ZM945.87,698.71l-.67,1.22-18.52,32.09h-48.53l-14.85.06h-235.94c-30.19,0-58.43-16.26-73.71-42.42-5.13-8.92-10.33-17.79-15.64-26.89l-4.34-7.46,4.28-7.46c12.16-21.15,26.89-49.14,41.14-76.28,6.48-12.35,15.65-29.46,23.66-44.25h121.14l-25.06,49.14h.43l-.43.43h317.48l-70.42,121.82Z"/>
    <path class="cls-9" d="M609.2,777.32c-34.97,0-67.51-18.78-84.92-49.01,0,0-33.99-58.84-42.31-73.18l4.49-7.79c22.12-38.43,44.27-76.91,67.23-116.96l5.25-9.15h-85.26l-33.64-58.25c31.97-55.38,48.25-83.54,70.08-121.29l37.52-64.9h343.04c34.98,0,67.57,18.76,85.05,48.97,9.9,17.04,19.77,34.15,29.68,51.35l12.62,21.88-76.81,133.37h84.91l33.83,58.8c-11.24,19.45-73.51,127.17-107.71,186.19h-343.04ZM597.35,524.42c-8.02,14.82-17.2,31.96-23.69,44.32-12.68,24.16-28.46,54.23-41.02,76.08l-6.04,10.53,9.22,15.81c4.24,7.26,8.4,14.39,12.53,21.56,16.4,28.07,46.66,45.48,79.01,45.48h235.94l14.88-.06h52.04l20.28-35.15.73-1.33,75.65-130.88h-313.24l-4.99-.15,25.2-49.42h-134.76l-1.73,3.2ZM762.53,533.13h135.01l1.75-3.11c8.38-14.86,17.98-31.92,24.95-44.39l2.46-4.39c14.25-25.46,28.99-51.78,40.53-71.75l6.04-10.45-21.63-37.47c-16.32-28.06-46.59-45.48-79.01-45.48h-303.55l-11.46,20.9-84.82,146.58h317.1l-27.38,49.57Z"/>
  </g>
</svg>