<?xml version="1.0" encoding="UTF-8"?>
<svg id="_Слой_1" data-name="Слой 1" xmlns="http://www.w3.org/2000/svg" xmlns:xlink="http://www.w3.org/1999/xlink" viewBox="0 0 1500 1500">
  <defs>
    <style>
      .cls-1 {
        fill: url(#_Безымянный_градиент_21);
      }

      .cls-2 {
        fill: url(#_Безымянный_градиент_21-2);
      }
    </style>
    <linearGradient id="_Безымянный_градиент_21" data-name="Безымянный градиент 21" x1="778.61" y1="149.25" x2="724.4" y2="1287.53" gradientUnits="userSpaceOnUse">
      <stop offset="0" stop-color="#52b884"/>
      <stop offset=".07" stop-color="#3fa072"/>
      <stop offset=".19" stop-color="#267f5a"/>
      <stop offset=".31" stop-color="#146849"/>
      <stop offset=".42" stop-color="#095a3f"/>
      <stop offset=".51" stop-color="#06563c"/>
      <stop offset=".62" stop-color="#085a3f"/>
      <stop offset=".73" stop-color="#0e6648"/>
      <stop offset=".84" stop-color="#197a57"/>
      <stop offset=".94" stop-color="#28966c"/>
      <stop offset="1" stop-color="#32a879"/>
    </linearGradient>
    <linearGradient id="_Безымянный_градиент_21-2" data-name="Безымянный градиент 21" x1="263.42" y1="604.44" x2="1246.83" y2="898.69" xlink:href="#_Безымянный_градиент_21"/>
  </defs>
  <path class="cls-1" d="M1347.88,748.24h-166.48s105.06-182.41,156.68-272.05c-31.63-54.75-62.85-109.11-94.22-163.08-39.85-68.86-113.29-111.2-193.13-111.2H309.84c-105.58,182.68-132.11,228.41-237.56,411.09,27.05,46.78,53.05,91.86,79.45,137.6h167.25c-53.7,93.69-105.32,183.33-157.07,273.23,31.76,54.75,62.99,108.98,94.21,162.94,39.72,68.99,113.42,111.33,192.87,111.33h740.89c79.45-137.07,237.82-411.09,237.82-411.09l-79.84-138.77ZM180.08,643.96l170.13-294.01,20.77-37.89h641.2c64.68,0,125.05,34.76,157.58,90.68l42.47,73.57-9.14,15.81c-26.13,45.21-59.59,105.06-91.99,162.95-14.9,26.66-35.41,63.11-53.31,94.87h-258.86l58.54-105.97H180.08ZM1168.73,1116.99l-1.44,2.61-39.59,68.6h-103.75l-31.76.13h-504.39c-64.55,0-124.92-34.76-157.59-90.68-10.97-19.08-22.08-38.03-33.45-57.5l-9.28-15.94,9.15-15.94c26-45.21,57.49-105.06,87.94-163.08,13.85-26.4,33.45-62.98,50.57-94.6h258.99l-53.58,105.06h.92l-.92.91h678.71l-150.54,260.42Z"/>
  <path class="cls-2" d="M449,1285.03c-74.77,0-144.33-40.15-181.55-104.78,0,0-72.67-125.78-90.44-156.45l9.59-16.66c47.29-82.16,94.63-164.41,143.72-250.05l11.22-19.56h-182.26l-71.91-124.53c68.34-118.39,103.15-178.59,149.81-259.29l80.2-138.73h733.36c74.78,0,144.45,40.11,181.82,104.68,21.17,36.43,42.26,73,63.46,109.77l26.98,46.77-164.2,285.11h181.52l72.31,125.69c-24.04,41.58-157.16,271.87-230.27,398.03H449ZM423.66,744.37c-17.15,31.67-36.78,68.31-50.65,94.75-27.11,51.66-60.85,115.94-87.7,162.64l-12.92,22.51,19.71,33.81c9.06,15.51,17.97,30.76,26.79,46.09,35.05,60.01,99.76,97.24,168.92,97.24h504.39l31.81-.13h111.24l43.36-75.14,1.57-2.85,161.73-279.79h-669.65l-10.67-.32,53.88-105.65h-288.1l-3.71,6.85ZM776.79,763h288.64l3.75-6.65c17.91-31.76,38.43-68.24,53.34-94.91l5.25-9.39c30.46-54.42,61.97-110.71,86.64-153.4l12.92-22.34-46.24-80.11c-34.89-59.98-99.6-97.22-168.9-97.22H363.25l-24.49,44.68-181.33,313.36h677.9l-58.54,105.97Z"/>
</svg>